<svg xmlns="http://www.w3.org/2000/svg" version="1.0" width="959.000000pt" height="189.000000pt" viewBox="0 0 959.000000 189.000000" preserveAspectRatio="xMidYMid meet">

<g transform="translate(0.000000,189.000000) scale(0.100000,-0.100000)" fill="#0080fa" stroke="none">
<path d="M295 1846 c-92 -29 -136 -67 -179 -153 l-26 -52 0 -670 c0 -654 0 -670 21 -718 24 -57 78 -116 134 -146 38 -21 55 -22 325 -25 l284 -3 -94 73 c-139 107 -259 225 -284 278 -16 36 -20 64 -19 141 0 82 4 104 27 155 42 92 134 173 198 174 15 0 15 -4 2 -47 -34 -111 -13 -156 130 -284 61 -54 113 -99 117 -99 3 0 138 108 300 241 162 132 308 247 326 255 41 18 77 18 112 -1 61 -31 101 -105 101 -184 0 -79 -21 -100 -399 -406 l-358 -290 275 -3 c310 -3 338 2 410 63 22 19 52 58 66 87 l26 52 -1 680 c0 495 -4 690 -12 713 -24 65 -73 119 -133 149 l-59 29 -625 2 c-485 2 -634 -1 -665 -11z m490 -198 c65 -33 139 -113 173 -186 24 -50 27 -69 27 -157 0 -83 -4 -109 -23 -150 -67 -147 -181 -227 -322 -227 -156 1 -283 99 -331 255 -64 206 44 423 241 488 14 5 61 7 105 5 62 -2 91 -8 130 -28z m730 0 c202 -105 266 -372 137 -566 -107 -162 -316 -203 -475 -93 -53 36 -89 83 -125 159 -24 50 -27 69 -27 157 0 88 3 107 27 157 45 97 134 179 228 209 14 5 61 7 105 5 63 -2 91 -8 130 -28z m-1194 -686 c39 -20 179 -130 179 -142 0 -4 -9 -15 -19 -24 -11 -10 -29 -41 -42 -69 -18 -43 -22 -70 -22 -159 -1 -60 -3 -108 -7 -108 -9 0 -188 146 -238 194 -103 99 -85 269 33 311 53 19 74 18 116 -3z m582 -60 c11 -9 28 -35 38 -57 22 -48 25 -29 4 23 -15 34 -15 38 1 49 10 7 41 13 70 13 89 0 141 -63 132 -160 -6 -61 -33 -98 -135 -185 -58 -49 -79 -62 -92 -55 -38 21 -163 146 -181 181 -26 50 -26 115 0 157 36 59 116 76 163 34z" fill="#0080fa"/>
<path d="M2200 795 c-18 -19 -25 -40 -28 -83 -4 -52 -1 -61 23 -90 24 -29 32 -32 76 -30 l49 2 0 36 0 35 -20 -33 c-15 -24 -27 -32 -43 -30 -19 3 -23 10 -27 68 -3 36 -3 81 0 100 7 46 36 52 67 14 l23 -29 0 26 c0 19 -6 28 -22 33 -45 12 -75 6 -98 -19z" fill="#0080fa"/>
<path d="M2353 809 c14 -8 17 -25 17 -104 0 -79 -3 -96 -17 -104 -13 -8 7 -10 75 -11 l92 0 0 38 0 37 -20 -32 c-15 -26 -27 -33 -50 -33 -29 0 -30 1 -30 50 0 54 10 62 34 28 15 -22 16 -21 16 27 0 48 -1 49 -16 27 -24 -34 -34 -26 -34 28 0 46 2 50 24 50 25 0 50 -19 59 -42 8 -23 15 -4 10 25 -5 27 -5 27 -92 27 -63 -1 -81 -3 -68 -11z" fill="#0080fa"/>
<path d="M2553 809 c14 -8 17 -25 17 -104 0 -79 -3 -96 -17 -104 -14 -8 -10 -10 22 -10 22 1 32 3 23 6 -16 4 -18 17 -18 96 l0 92 33 -52 c17 -29 46 -74 62 -100 l30 -48 3 105 c2 84 6 107 19 118 15 10 12 12 -18 12 -22 0 -29 -3 -21 -9 9 -5 12 -25 10 -62 l-3 -54 -38 63 c-37 60 -40 62 -80 62 -33 -1 -38 -3 -24 -11z" fill="#0080fa"/>
<path d="M2750 783 l0 -38 20 33 c11 17 24 32 30 32 6 0 10 -40 10 -104 0 -91 -2 -105 -17 -109 -10 -3 9 -5 42 -5 33 0 52 2 43 5 -16 4 -18 18 -18 109 0 57 3 104 8 104 15 0 31 -16 41 -40 9 -23 10 -22 10 13 l1 37 -85 0 -85 0 0 -37z" fill="#0080fa"/>
<path d="M2950 810 c22 -14 22 -198 0 -210 -10 -7 2 -9 40 -9 42 0 51 2 38 10 -13 7 -18 23 -18 54 0 75 43 70 53 -7 3 -22 11 -45 19 -49 18 -12 68 -11 68 1 0 5 -5 9 -12 7 -7 -1 -15 15 -19 37 -4 23 -16 46 -30 57 -19 15 -20 19 -7 19 20 0 48 26 48 46 0 8 -9 23 -20 34 -17 17 -33 20 -97 20 -52 0 -73 -3 -63 -10z m115 -45 c0 -36 -3 -40 -27 -43 -26 -3 -28 -1 -28 36 0 45 6 54 35 50 16 -2 20 -10 20 -43z" fill="#0080fa"/>
<path d="M3195 794 c-87 -94 11 -259 112 -189 29 20 47 83 39 130 -16 81 -100 114 -151 59z m89 0 c3 -9 6 -49 6 -89 0 -89 -5 -105 -35 -105 -30 0 -35 16 -35 105 0 89 5 105 35 105 13 0 26 -7 29 -16z" fill="#0080fa"/>
<path d="M3453 813 c15 -4 17 -18 17 -108 0 -90 -2 -104 -17 -108 -10 -3 14 -5 53 -6 83 -1 115 17 134 75 17 50 5 98 -31 128 -27 23 -39 26 -102 25 -40 -1 -64 -3 -54 -6z m127 -22 c5 -11 10 -51 10 -90 0 -74 -13 -101 -51 -101 -18 0 -19 8 -19 105 0 105 0 105 25 105 14 0 29 -8 35 -19z" fill="#0080fa"/>
<path d="M3683 809 c14 -8 17 -25 17 -104 0 -79 -3 -96 -17 -104 -13 -8 7 -10 75 -11 l92 0 0 38 0 37 -20 -33 c-17 -28 -25 -33 -53 -30 -31 3 -32 4 -28 48 4 56 8 61 32 31 l19 -23 0 48 c0 47 0 48 -16 26 -9 -13 -21 -21 -26 -20 -15 5 -14 91 1 96 23 8 60 -8 66 -28 10 -31 22 -24 17 10 l-4 30 -87 0 c-63 -1 -81 -3 -68 -11z" fill="#0080fa"/>
<path d="M3963 813 c15 -4 17 -18 17 -108 0 -90 -2 -104 -17 -108 -10 -3 9 -5 42 -5 33 0 52 2 43 5 -16 4 -18 18 -18 108 0 90 2 104 18 108 9 3 -10 5 -43 5 -33 0 -52 -2 -42 -5z" fill="#0080fa"/>
<path d="M4098 790 c15 -16 50 -68 77 -114 28 -47 53 -86 58 -86 4 0 7 49 7 109 0 78 4 111 13 114 6 3 -4 5 -23 5 -19 0 -27 -2 -17 -5 14 -4 17 -16 17 -66 0 -68 0 -69 -54 26 -26 43 -31 47 -66 47 l-39 0 27 -30z" fill="#0080fa"/>
<path d="M4281 783 c0 -21 3 -31 6 -23 7 20 34 50 45 50 4 0 8 -47 8 -104 0 -91 -2 -105 -17 -109 -10 -3 9 -5 42 -5 33 0 52 2 43 5 -16 4 -18 18 -18 109 0 57 4 104 8 104 11 0 38 -30 45 -50 3 -8 6 2 6 23 l1 37 -85 0 -85 0 1 -37z" fill="#0080fa"/>
<path d="M4483 809 c14 -8 17 -25 17 -104 0 -79 -3 -96 -17 -104 -13 -8 7 -10 75 -11 l92 0 0 38 0 37 -20 -32 c-15 -26 -27 -33 -50 -33 -29 0 -30 1 -30 50 0 54 10 62 34 28 15 -22 16 -21 16 27 0 48 -1 49 -16 27 -24 -34 -34 -26 -34 28 0 46 2 50 24 50 25 0 50 -19 59 -42 8 -23 15 -4 10 25 -5 27 -5 27 -92 27 -63 -1 -81 -3 -68 -11z" fill="#0080fa"/>
<path d="M4683 813 c15 -4 17 -18 17 -108 0 -90 -2 -104 -17 -108 -10 -3 7 -5 37 -5 30 0 49 2 43 5 -14 5 -19 113 -5 113 19 -1 33 -20 39 -56 3 -21 10 -45 16 -51 11 -15 67 -17 67 -3 0 5 -6 9 -12 7 -8 -1 -14 12 -16 35 -2 25 -11 43 -24 53 -12 8 -20 16 -17 17 2 2 13 8 24 14 11 6 21 23 23 37 5 41 -29 57 -118 56 -41 -1 -67 -3 -57 -6z m117 -23 c17 -31 2 -70 -26 -70 -22 0 -24 4 -24 45 0 38 3 45 20 45 10 0 24 -9 30 -20z" fill="#0080fa"/>
<path d="M4879 811 c8 -5 31 -54 50 -109 20 -55 40 -101 46 -102 5 -1 24 45 42 101 17 56 37 106 45 110 8 6 1 9 -22 9 -28 -1 -31 -3 -18 -10 15 -10 15 -15 -4 -71 -11 -33 -24 -57 -28 -52 -14 15 -42 112 -35 123 4 6 -12 10 -42 10 -33 0 -43 -3 -34 -9z" fill="#0080fa"/>
<path d="M5098 813 c8 -3 12 -35 12 -108 0 -73 -4 -105 -12 -108 -7 -3 26 -6 73 -6 92 -1 99 3 99 52 0 20 -3 19 -26 -10 -18 -24 -34 -33 -55 -33 -28 0 -29 1 -29 50 0 39 3 50 16 50 9 0 18 -9 21 -20 9 -35 19 -21 17 23 -4 55 -4 56 -14 30 -5 -13 -16 -23 -25 -23 -11 0 -15 12 -15 50 0 47 2 50 25 50 15 0 36 -11 50 -26 l25 -27 0 32 0 31 -87 -1 c-49 0 -82 -3 -75 -6z" fill="#0080fa"/>
<path d="M5298 813 c8 -3 12 -35 12 -108 0 -73 -4 -105 -12 -108 -7 -3 2 -6 21 -6 31 -1 33 1 17 12 -14 10 -16 26 -14 97 l3 85 60 -97 c32 -54 63 -98 67 -98 4 0 8 49 8 109 0 78 4 111 13 114 6 3 -3 6 -22 6 -31 1 -33 -1 -17 -12 13 -10 17 -24 14 -67 l-3 -55 -40 67 c-39 66 -41 68 -80 67 -22 0 -34 -3 -27 -6z" fill="#0080fa"/>
<path d="M5530 795 c-18 -19 -25 -40 -28 -83 -4 -52 -1 -61 23 -90 24 -29 32 -32 76 -30 l49 2 0 36 0 35 -20 -33 c-15 -24 -27 -32 -43 -30 -21 3 -22 7 -22 103 0 91 2 100 20 103 12 3 27 -6 42 -24 l23 -29 0 26 c0 19 -6 28 -22 33 -45 12 -75 6 -98 -19z" fill="#0080fa"/>
<path d="M5678 813 c8 -3 12 -35 12 -108 0 -73 -4 -105 -12 -108 -7 -3 12 -6 42 -6 42 0 51 2 38 10 -15 8 -18 25 -18 104 0 79 3 96 18 104 13 8 4 10 -38 10 -30 0 -49 -3 -42 -6z" fill="#0080fa"/>
<path d="M5837 809 c-62 -36 -60 -175 2 -209 80 -42 159 42 131 139 -19 69 -80 101 -133 70z m71 -11 c14 -14 16 -165 3 -186 -4 -8 -19 -12 -32 -10 -23 3 -24 7 -27 92 -2 49 -1 95 2 103 7 16 38 17 54 1z" fill="#0080fa"/>
<path d="M6003 809 c14 -8 17 -25 17 -104 0 -79 -3 -96 -17 -104 -15 -9 -12 -10 17 -11 22 0 30 3 22 8 -9 6 -12 33 -10 96 l3 87 54 -91 c29 -49 57 -93 62 -96 5 -3 9 42 9 100 0 89 3 107 18 115 14 9 11 10 -18 11 -22 0 -30 -3 -22 -9 9 -5 12 -25 10 -62 l-3 -54 -38 63 c-37 60 -40 62 -80 62 -33 -1 -38 -3 -24 -11z" fill="#0080fa"/>
<path d="M6213 813 c15 -4 17 -18 17 -108 0 -90 -2 -104 -17 -108 -10 -3 24 -5 75 -6 84 -1 92 1 92 18 0 11 3 26 6 35 3 9 1 16 -5 16 -6 0 -11 -6 -11 -13 0 -22 -34 -47 -63 -47 -26 0 -27 2 -27 50 0 38 4 50 15 50 9 0 20 -10 25 -22 7 -19 9 -13 9 27 1 48 0 49 -15 27 -24 -34 -34 -26 -34 28 0 47 2 50 25 50 15 0 36 -11 50 -26 l25 -27 0 32 0 31 -92 -1 c-51 -1 -85 -3 -75 -6z" fill="#0080fa"/>
<path d="M6426 798 c-33 -47 -14 -91 50 -118 30 -13 44 -25 44 -38 0 -45 -67 -56 -85 -14 -13 30 -25 28 -25 -6 0 -26 3 -28 49 -30 42 -2 53 2 65 20 18 26 21 71 6 98 -6 11 -28 24 -51 30 -44 12 -58 32 -39 55 19 23 46 18 69 -12 l20 -28 1 30 c0 28 -2 30 -44 33 -37 2 -47 -1 -60 -20z" fill="#0080fa"/>
<path d="M6653 813 c15 -4 17 -18 17 -108 0 -90 -2 -104 -17 -108 -10 -3 23 -5 73 -6 87 -1 92 0 98 22 8 32 7 47 -4 47 -5 0 -10 -6 -10 -13 0 -22 -34 -47 -63 -47 -26 0 -27 2 -27 50 0 38 4 50 15 50 9 0 20 -10 25 -22 7 -18 9 -13 9 27 -1 28 -3 43 -6 35 -6 -16 -23 -30 -35 -30 -5 0 -8 23 -8 50 0 47 2 50 25 50 15 0 36 -11 50 -26 l25 -27 0 32 0 31 -92 -1 c-51 -1 -85 -3 -75 -6z" fill="#0080fa"/>
<path d="M6858 813 c8 -3 12 -35 12 -108 0 -73 -4 -105 -12 -108 -7 -3 3 -5 22 -5 19 0 27 2 18 5 -16 4 -18 17 -18 94 0 49 2 89 5 89 2 0 30 -43 61 -95 31 -52 60 -95 65 -95 5 0 9 49 9 109 0 78 4 111 13 114 6 3 -4 6 -23 6 -28 0 -32 -2 -17 -10 12 -7 17 -23 17 -59 0 -28 -3 -50 -7 -50 -5 0 -25 27 -45 60 -35 57 -39 60 -75 59 -21 0 -32 -3 -25 -6z" fill="#0080fa"/>
<path d="M7063 813 c15 -4 17 -18 17 -108 0 -90 -2 -104 -17 -108 -10 -3 14 -5 53 -6 58 -1 76 3 97 20 57 44 57 144 0 189 -21 16 -39 20 -97 19 -39 -1 -63 -3 -53 -6z m128 -24 c6 -13 10 -52 7 -96 -4 -76 -13 -93 -50 -93 -16 0 -18 12 -18 105 0 105 0 105 25 105 15 0 29 -8 36 -21z" fill="#0080fa"/>
<path d="M7327 809 c-62 -36 -60 -175 2 -209 26 -13 72 -12 92 3 49 38 56 135 13 186 -27 33 -71 41 -107 20z m73 -18 c15 -28 13 -154 -3 -175 -7 -10 -22 -17 -33 -14 -17 3 -19 13 -22 92 -2 49 -1 95 2 103 8 20 44 16 56 -6z" fill="#0080fa"/>
<path d="M7476 812 c6 -4 28 -55 49 -114 22 -60 42 -108 45 -108 4 0 21 47 39 104 18 57 38 109 44 115 8 8 2 11 -23 10 -19 -1 -27 -3 -17 -6 9 -2 17 -6 17 -9 0 -16 -35 -124 -40 -124 -3 0 -16 28 -28 62 -18 48 -20 63 -10 70 8 4 -8 8 -37 8 -27 0 -45 -4 -39 -8z" fill="#0080fa"/>
<path d="M7732 799 c-5 -13 -22 -59 -37 -102 -16 -44 -35 -85 -42 -93 -12 -12 -10 -14 19 -14 22 0 29 3 20 9 -27 17 -9 46 30 49 30 3 38 -1 43 -19 5 -14 2 -25 -6 -30 -9 -5 7 -9 41 -9 40 1 51 3 38 10 -9 6 -31 54 -48 108 -37 111 -46 125 -58 91z m12 -106 c6 -20 4 -23 -18 -23 -30 0 -29 -2 -15 40 12 34 19 30 33 -17z" fill="#0080fa"/>
<path d="M7887 802 c-9 -10 -17 -35 -17 -55 0 -39 20 -59 71 -71 32 -7 43 -30 29 -57 -15 -27 -55 -24 -79 7 l-21 27 0 -30 c0 -29 2 -30 50 -32 48 -1 51 0 67 34 25 52 10 84 -50 113 -39 18 -48 27 -45 45 5 34 54 36 70 3 15 -34 30 -33 26 1 -3 23 -8 27 -44 30 -30 3 -45 -1 -57 -15z" fill="#0080fa"/>
<path d="M8063 805 c-48 -34 -54 -136 -12 -189 19 -24 27 -27 70 -24 47 3 49 4 49 32 l0 29 -21 -27 c-14 -17 -29 -26 -43 -24 -19 3 -21 10 -24 83 -2 44 0 90 3 102 7 31 39 29 64 -3 l21 -27 0 29 c0 27 -3 29 -43 32 -26 1 -50 -4 -64 -13z" fill="#0080fa"/>
<path d="M8203 813 c15 -4 17 -17 17 -97 0 -108 11 -126 76 -126 68 0 77 14 82 121 3 54 9 97 16 101 6 4 -5 8 -24 8 -29 -1 -32 -2 -17 -11 14 -8 17 -24 17 -82 0 -82 -15 -121 -48 -125 -43 -6 -52 13 -52 113 0 65 4 95 13 98 6 3 -13 5 -43 5 -30 0 -47 -2 -37 -5z" fill="#0080fa"/>
<path d="M8423 813 c15 -4 17 -18 17 -108 0 -90 -2 -104 -17 -108 -10 -3 24 -5 75 -6 l92 -1 0 38 0 37 -26 -32 c-16 -21 -34 -33 -50 -33 -24 0 -24 1 -24 104 0 91 2 105 18 109 9 3 -10 5 -43 5 -33 0 -52 -2 -42 -5z" fill="#0080fa"/>
<path d="M8670 723 c-18 -53 -42 -105 -52 -115 -17 -17 -17 -18 20 -17 20 1 29 3 20 6 -19 5 -22 12 -12 37 9 24 71 21 84 -3 13 -26 13 -29 -7 -34 -10 -3 7 -5 37 -5 30 0 50 2 43 4 -6 3 -28 54 -48 115 -20 60 -40 109 -44 109 -3 0 -22 -44 -41 -97z m34 -15 c9 -35 8 -38 -18 -38 -23 0 -24 2 -15 30 13 36 24 38 33 8z" fill="#0080fa"/>
<path d="M8838 813 c8 -3 12 -35 12 -108 0 -73 -4 -105 -12 -108 -7 -3 12 -5 42 -5 30 0 47 2 38 5 -14 4 -18 15 -18 59 0 38 4 54 13 54 21 0 37 -22 37 -53 0 -46 17 -67 53 -67 18 0 27 4 20 8 -6 4 -14 24 -18 45 -4 21 -16 44 -26 50 -24 15 -24 23 0 30 10 2 24 14 30 26 10 18 8 25 -13 46 -22 22 -33 25 -98 24 -40 0 -67 -3 -60 -6z m118 -27 c10 -41 1 -61 -29 -64 -26 -3 -27 -2 -27 42 0 42 2 46 25 46 18 0 26 -7 31 -24z" fill="#0080fa"/>
<path d="M9063 813 c15 -4 17 -18 17 -108 0 -90 -2 -104 -17 -108 -10 -3 23 -5 73 -6 l92 -1 4 35 c2 19 0 35 -4 35 -4 0 -8 -6 -8 -13 0 -22 -34 -47 -63 -47 -26 0 -27 2 -27 50 0 28 3 50 8 50 12 0 29 -14 35 -30 3 -8 6 7 6 35 1 47 0 49 -15 27 -24 -34 -34 -26 -34 28 0 47 2 50 25 50 15 0 36 -11 51 -27 l26 -28 -4 30 -3 30 -90 2 c-49 0 -82 -1 -72 -4z" fill="#0080fa"/>
<path d="M9276 798 c-33 -47 -14 -91 50 -118 30 -13 44 -25 44 -38 0 -45 -67 -56 -85 -14 -13 30 -25 28 -25 -6 0 -26 3 -28 49 -30 42 -2 53 2 65 20 18 26 21 71 6 98 -6 11 -28 24 -51 30 -44 12 -58 32 -39 55 19 23 46 18 69 -12 l20 -28 1 30 c0 28 -2 30 -44 33 -37 2 -47 -1 -60 -20z" fill="#0080fa"/>
<path d="M4090 616 c0 -8 -6 -17 -12 -19 -7 -3 2 -6 19 -6 32 -1 32 0 16 19 -21 24 -23 24 -23 6z" fill="#0080fa"/>
<path d="M2060 450 l0 -30 3715 0 3715 0 0 30 0 30 -3715 0 -3715 0 0 -30z" fill="#0080fa"/>
<path d="M4855 369 c-10 -30 -4 -30 30 -3 l30 24 -27 0 c-18 0 -29 -7 -33 -21z" fill="#0080fa"/>
<path d="M3930 293 c-26 -24 -33 -39 -37 -79 -6 -56 13 -106 46 -124 11 -5 37 -9 60 -7 40 2 41 3 41 37 l0 35 -20 -33 c-15 -24 -27 -32 -43 -30 -21 3 -22 7 -22 103 0 99 0 100 25 103 18 2 30 -5 42 -25 l17 -28 1 30 c0 22 -5 31 -17 32 -10 1 -28 4 -39 8 -16 5 -30 -1 -54 -22z" fill="#0080fa"/>
<path d="M4684 310 c-12 -4 -31 -21 -43 -36 -38 -48 -22 -157 28 -184 49 -26 121 1 121 45 0 13 6 26 13 28 6 3 -10 6 -38 6 -31 0 -45 -3 -37 -8 21 -13 11 -65 -12 -70 -32 -5 -46 27 -46 102 0 84 11 107 50 107 23 0 33 -7 45 -30 20 -39 25 -38 25 4 0 28 -4 34 -22 34 -13 0 -32 2 -43 5 -11 4 -30 2 -41 -3z" fill="#0080fa"/>
<path d="M5006 218 c-21 -56 -44 -111 -53 -120 -15 -17 -14 -18 18 -18 23 0 30 3 20 9 -9 6 -11 18 -7 35 9 37 61 37 78 0 10 -21 9 -27 -3 -35 -9 -6 4 -9 40 -9 46 0 52 2 39 13 -9 6 -30 57 -48 112 -18 55 -36 104 -40 108 -4 5 -24 -38 -44 -95z m38 -35 c6 -20 4 -23 -18 -23 -29 0 -31 7 -14 45 12 27 19 23 32 -22z" fill="#0080fa"/>
<path d="M5303 310 c-42 -17 -60 -69 -55 -151 1 -14 13 -38 27 -53 22 -23 32 -27 68 -24 47 3 57 12 57 48 0 25 -1 25 -26 -8 -48 -60 -74 -33 -74 77 0 38 3 76 6 85 10 26 52 19 68 -11 l15 -28 1 31 c0 18 -5 31 -12 31 -7 0 -22 2 -33 6 -11 3 -30 2 -42 -3z" fill="#0080fa"/>
<path d="M6259 305 c-75 -41 -66 -191 13 -219 68 -24 122 33 115 122 -6 83 -68 130 -128 97z m66 -110 c0 -91 -2 -100 -19 -103 -32 -7 -46 25 -46 104 0 92 5 106 39 102 l26 -3 0 -100z" fill="#0080fa"/>
<path d="M6815 296 c-42 -42 -25 -106 32 -121 36 -9 53 -23 53 -45 0 -43 -72 -52 -85 -10 -9 29 -25 24 -25 -8 0 -26 3 -28 49 -30 42 -2 53 2 65 20 22 30 20 91 -1 111 -10 8 -30 18 -45 22 -56 14 -61 65 -7 65 21 0 32 -7 43 -27 l15 -28 1 32 c0 24 -4 32 -17 31 -10 0 -26 3 -35 7 -12 4 -25 -1 -43 -19z" fill="#0080fa"/>
<path d="M7001 306 c-35 -19 -50 -54 -51 -113 0 -41 5 -58 26 -82 24 -28 31 -31 75 -29 49 3 49 3 49 38 l-1 35 -14 -27 c-16 -29 -51 -46 -66 -31 -14 14 -22 133 -11 168 12 41 40 44 69 9 l23 -29 0 32 c0 24 -4 32 -17 32 -10 -1 -27 2 -38 5 -11 3 -31 0 -44 -8z" fill="#0080fa"/>
<path d="M7596 218 c-21 -56 -44 -111 -53 -120 -15 -17 -14 -18 18 -18 23 0 30 3 20 9 -9 6 -11 18 -7 35 9 37 61 37 78 0 10 -21 9 -27 -3 -35 -9 -6 4 -9 40 -9 46 0 52 2 39 13 -9 6 -30 57 -48 112 -18 55 -36 104 -40 108 -4 5 -24 -38 -44 -95z m38 -35 c6 -20 4 -23 -18 -23 -29 0 -31 7 -14 45 12 27 19 23 32 -22z" fill="#0080fa"/>
<path d="M3615 294 c30 -30 65 -113 65 -154 0 -33 -4 -42 -22 -50 -17 -6 -6 -9 42 -8 36 0 57 2 48 5 -31 8 -24 106 11 171 27 49 28 52 10 52 -11 0 -18 -4 -15 -9 6 -9 -24 -91 -33 -91 -3 0 -14 19 -24 42 -13 33 -14 43 -5 50 8 4 -10 8 -40 8 -49 0 -52 -1 -37 -16z" fill="#0080fa"/>
<path d="M4073 303 c15 -4 17 -18 17 -103 0 -84 -3 -101 -17 -109 -14 -8 -5 -10 37 -10 30 0 49 3 43 6 -9 3 -13 35 -13 108 0 73 4 105 13 108 6 3 -13 5 -43 5 -30 0 -47 -2 -37 -5z" fill="#0080fa"/>
<path d="M4188 303 c8 -3 12 -35 12 -108 0 -73 -4 -105 -12 -108 -7 -3 12 -6 42 -6 42 0 51 2 38 10 -13 7 -18 23 -18 59 0 42 3 50 19 50 20 0 31 -18 31 -54 0 -32 28 -66 55 -66 13 0 27 4 30 10 3 6 -1 10 -9 10 -11 0 -16 10 -16 30 0 21 -9 39 -26 55 -18 17 -22 25 -12 25 17 0 48 31 48 48 0 7 -9 21 -20 32 -17 17 -33 20 -97 19 -43 0 -72 -3 -65 -6z m117 -48 c0 -36 -2 -40 -25 -40 -22 0 -25 5 -28 43 -3 42 -2 43 25 40 25 -3 28 -7 28 -43z" fill="#0080fa"/>
<path d="M4403 303 c15 -4 17 -17 17 -98 0 -86 2 -95 22 -109 32 -23 91 -20 113 4 14 16 20 42 23 108 3 48 10 90 16 94 6 4 -5 8 -24 8 -29 -1 -32 -2 -17 -11 14 -8 17 -23 16 -77 -1 -90 -10 -115 -41 -126 -47 -17 -58 4 -58 109 0 65 4 95 13 98 6 3 -13 5 -43 5 -30 0 -47 -2 -37 -5z" fill="#0080fa"/>
<path d="M4833 303 c15 -4 17 -18 17 -103 0 -84 -3 -101 -17 -109 -14 -8 -5 -10 37 -10 30 0 49 3 43 6 -9 3 -13 35 -13 108 0 73 4 105 13 108 6 3 -13 5 -43 5 -30 0 -47 -2 -37 -5z" fill="#0080fa"/>
<path d="M5476 205 c-22 -58 -46 -110 -55 -115 -12 -7 -6 -9 23 -10 36 0 38 1 22 13 -15 11 -17 17 -7 35 17 33 68 30 81 -4 13 -33 13 -32 -7 -37 -10 -3 7 -5 37 -5 30 0 50 2 43 4 -6 3 -28 54 -48 115 -20 60 -40 109 -44 109 -4 0 -24 -47 -45 -105z m39 -17 c6 -25 4 -28 -18 -28 -24 0 -25 1 -14 35 11 38 22 36 32 -7z" fill="#0080fa"/>
<path d="M5648 303 c8 -3 12 -35 12 -108 0 -73 -4 -105 -12 -108 -7 -3 12 -5 42 -5 30 0 47 2 38 5 -14 4 -18 15 -18 59 0 38 4 54 13 54 22 0 37 -23 37 -56 0 -18 7 -40 16 -48 17 -18 60 -21 69 -6 3 6 -1 10 -9 10 -9 0 -18 13 -22 36 -3 19 -16 44 -27 55 -11 10 -15 19 -9 19 15 0 52 36 52 50 0 6 -9 19 -20 30 -17 17 -33 20 -97 19 -43 0 -72 -3 -65 -6z m120 -36 c4 -33 -13 -57 -39 -57 -16 0 -19 8 -19 46 0 44 1 45 28 42 21 -2 28 -9 30 -31z" fill="#0080fa"/>
<path d="M5868 303 c8 -3 12 -35 12 -108 0 -73 -4 -105 -12 -108 -7 -3 18 -6 56 -6 65 -1 70 1 102 33 30 30 34 40 34 86 0 44 -4 56 -29 81 -27 27 -35 29 -103 28 -40 0 -67 -3 -60 -6z m135 -48 c13 -61 0 -143 -25 -156 -41 -22 -48 -7 -48 101 l0 101 32 -3 c29 -3 33 -7 41 -43z" fill="#0080fa"/>
<path d="M6093 303 c15 -4 17 -18 17 -108 0 -90 -2 -104 -17 -108 -10 -3 9 -5 42 -5 33 0 52 2 43 5 -16 4 -18 18 -18 108 0 90 2 104 18 108 9 3 -10 5 -43 5 -33 0 -52 -2 -42 -5z" fill="#0080fa"/>
<path d="M6408 298 c5 -7 24 -53 41 -102 17 -48 35 -95 40 -105 11 -19 7 -28 51 111 17 53 36 99 43 101 6 3 -4 5 -23 6 -21 0 -29 -3 -19 -7 14 -6 13 -14 -4 -72 l-20 -65 -19 45 c-11 25 -21 57 -22 72 -1 25 -4 28 -40 28 -29 0 -36 -3 -28 -12z" fill="#0080fa"/>
<path d="M6626 205 c-21 -58 -45 -109 -54 -115 -13 -7 -8 -9 22 -10 36 0 38 1 22 13 -15 11 -17 17 -7 35 17 33 68 30 81 -4 13 -33 13 -32 -7 -37 -10 -3 7 -5 37 -5 30 0 50 2 43 4 -6 3 -28 54 -48 115 -20 60 -40 109 -44 109 -4 0 -24 -47 -45 -105z m41 -10 c11 -34 11 -35 -17 -35 -28 0 -28 1 -17 35 6 19 13 35 17 35 4 0 11 -16 17 -35z" fill="#0080fa"/>
<path d="M7128 303 c8 -3 12 -31 12 -87 0 -69 4 -88 21 -110 24 -31 81 -36 117 -10 20 14 22 23 22 109 0 81 2 94 18 98 9 3 -1 5 -23 5 -22 0 -32 -2 -22 -5 14 -4 17 -17 17 -92 0 -75 -3 -91 -20 -106 -25 -23 -65 -13 -74 17 -3 13 -6 58 -6 100 0 65 3 77 18 81 9 3 -8 5 -38 5 -30 0 -49 -2 -42 -5z" fill="#0080fa"/>
<path d="M7353 299 c14 -8 17 -25 17 -104 0 -79 -3 -96 -17 -104 -13 -8 5 -10 70 -11 l87 0 0 43 -1 42 -14 -32 c-14 -32 -52 -52 -74 -38 -7 3 -11 45 -11 100 0 79 3 96 18 104 13 8 4 10 -38 10 -42 0 -51 -2 -37 -10z" fill="#0080fa"/>
<path d="M7763 303 c15 -4 17 -18 17 -103 0 -84 -3 -101 -17 -109 -14 -8 -5 -10 37 -10 30 0 49 3 43 6 -8 3 -13 25 -13 60 0 46 3 54 17 51 11 -2 20 -19 27 -53 9 -41 16 -51 39 -59 19 -7 31 -6 39 2 9 9 8 12 -5 12 -13 0 -17 9 -17 34 0 25 -7 40 -26 55 -17 13 -21 21 -12 21 19 0 48 32 48 52 0 34 -34 48 -116 47 -43 -1 -71 -3 -61 -6z m115 -45 c-2 -36 -7 -44 -25 -46 -21 -3 -23 1 -23 42 0 43 2 46 26 46 23 0 25 -3 22 -42z" fill="#0080fa"/>
</g>
</svg>